<?xml version="1.0" encoding="utf-8"?>
<!-- Generator: Adobe Illustrator 23.0.2, SVG Export Plug-In . SVG Version: 6.00 Build 0)  -->
<svg version="1.1" id="Layer_1" xmlns="http://www.w3.org/2000/svg" xmlns:xlink="http://www.w3.org/1999/xlink" x="0px" y="0px"
	 viewBox="0 0 500 500" style="enable-background:new 0 0 500 500;" xml:space="preserve">
<style type="text/css">
	.st0{fill:#82411D;}
	.st1{fill:#E95524;}
	.st2{fill:#E97C24;}
	.st3{fill:#FFFFFF;}
	.st4{fill:#BE1E2D;}
	.st5{fill:#EF9C20;}
</style>
<path class="st0" d="M234.4,192c-2.4,7-12.9,19-17.8,29.4c0,0.1-3,0,79.1,0c-5.7-11.8-15-21.9-17.6-29c47.5-22.9,30.8-94-21.4-94
	C205.2,98.5,188,168.3,234.4,192z"/>
<path class="st0" d="M171.4,346c12,17.7,25.8,14.2,36.2,26.4c9.8,11.5,17.8,36.4,49.1,15.4c31.7,21.1,39.6-4.5,49.5-15.9
	c10.1-11.6,24-8.5,35.9-25.9H171.4z"/>
<path class="st1" d="M379.7,187.2c-4-1.7-8.6-2.9-13.8-3.6c32-24.3,11.3-56.2-12.8-55c21.2-11.7,43.7-16,55.7,4.8
	C422,156.2,402.8,174.5,379.7,187.2z M146.6,182.5c-31.8-24.4-10.9-56.5,13.8-54.8c-21.2-11.8-44.1-16.6-56.3,4.5
	c-13.1,22.7,5.7,41,28.9,53.7C136.9,184.2,141.4,183.1,146.6,182.5z"/>
<path class="st2" d="M232.4,104.6c1.7-15.3,8-27.8,24.2-27.8c16.1,0,22.4,12.4,24.2,27.6C266.6,96.6,247.3,96.3,232.4,104.6z
	 M347.8,188.4c19.4-9.8,36.8-24.6,26-43.3s-32.2-11-50.3,0.7c11.8-18.1,19.6-39.6,0.8-50.5c-14.8-8.5-27,0.5-36.3,14
	c25.2,20.8,26.1,65.8-9.9,83.2c2.7,7.1,11.9,17.2,17.6,29c48,0,88.7,0,94.5,0C396.4,205,387.9,186.3,347.8,188.4z M216.7,221.4
	c4.9-10.5,15.4-22.4,17.8-29.4c-35-17.9-33.8-62-8.9-82.6c-9.4-14-21.8-23.3-36.7-14.7c-18.7,10.8-11,32.2,0.7,50.3
	c-18.2-11.8-39.7-19.6-50.5-0.8c-10.8,18.7,6.5,33.4,25.7,43.2c-21.7-1.2-44.2,2.9-44.2,24.5c0,3.6,0.7,6.7,1.9,9.6
	C223.3,221.4,216.6,221.5,216.7,221.4z"/>
<path class="st3" d="M247,138.1c0,13.7-20.8,13.8-20.8,0C226.2,124.4,247,124.4,247,138.1z M266.6,138.1c0,13.7,20.8,13.8,20.8,0
	C287.4,124.4,266.6,124.4,266.6,138.1z"/>
<path d="M231.1,137.2c0,10.1,15.2,10.1,15.2,0S231.1,127.2,231.1,137.2z M233.1,139.8c-0.7-1.3,0.8-2.6,1.4-1.1
	C235,140.1,233.7,141,233.1,139.8z M233.1,137c-2.3-0.9,1.7-6,3.3-4.5C237.9,133.9,234.6,137.6,233.1,137z M267.3,137.2
	c0,10.1,15.2,10.1,15.2,0C282.5,127.2,267.3,127.1,267.3,137.2z M280.5,139.8c-0.6,1.2-2,0.3-1.4-1.1
	C279.8,137.3,281.3,138.5,280.5,139.8z M280.5,137c-1.4,0.6-3.9-2.2-3.7-3.7C277.4,129.8,283.2,135.9,280.5,137z"/>
<path class="st4" d="M224.8,99.6c-2.7-68.1,43.3-60.5,55.6-43c6.4,9.1,9.2,23.5,8.4,43c-0.9,1.1-1.8,2.1-2.7,3.3
	c-2.8-22.2-14.7-31.4-29.4-31.4c-14.5,0-26.5,9-29.4,31.1C226.5,101.5,225.7,100.5,224.8,99.6z M395.8,221.4H432
	c0-24.9-23.1-32-48.1-32.1C396,196.6,399.1,210,395.8,221.4z M116.7,221.4c-4.1-12.1-0.4-26.3,12.1-33.5c-26.1,0-49.5,7.6-48.5,33.5
	H116.7z M278.6,170.1c-0.7-2.3-2.2-4.2-3.5-6.1c-3.3-4.9-3.8-10.4-7.5-14.3c2,3.2,1.6,9.3-0.8,14.2
	C268.8,179.5,280.7,177.1,278.6,170.1z"/>
<path class="st5" d="M303.4,440.6c-3.8-0.4-2.8-1.1,0.1,3.4c1,1.5,1.6,3.1,0.5,4.7c-2.8,3.8-7.2-1-9.4-3c0.2,1.6,1.3,4.1,0,5.5
	c-2.1,2.2-5.5,1.7-7.5-0.3c-1.4-1.5-1.8-2.7-6.4-7.6c-8.6-9.2-11.4-7.4-12.7-11.9c-0.7-2.6,0.9-4.8,3.4-5.4c7.8-2,4.5,7.6,2.5-27.1
	c3.3,0.6,6.5,0.5,9.4-0.2c0.5,10,0.6,25.1,3.9,29.1c3.7,4.4,14.7-2.5,19.7,5.5C309.8,437.9,307,441.2,303.4,440.6z M242.2,425.9
	c-6.9-1.7-5.3,4.7-3.3-11.9c0.2-1.7-0.4,5.8,0.9-15.1c-3,0.5-5.8,0.5-9.4-0.3c-1.8,33-1.8,31-13.5,30.5
	c-13.2-0.6-14.3,12.8-6.7,11.6c3.8-0.4,2.8-1.2-0.1,3.4c-1,1.5-1.6,3.1-0.5,4.7c2.8,3.8,7.2-1,9.4-3c-0.2,1.6-1.3,4.1,0,5.5
	c2.1,2.2,5.5,1.7,7.5-0.3c1.6-1.6,1.3-2.2,6.4-7.6c8.4-9.1,11.5-7.5,12.7-11.9C246.4,428.8,244.7,426.6,242.2,425.9z M336.8,132.6
	c3.5-1.4,6.8-2.5,9.9-3.2c13.6-22.5,20.6-47.6-2-60.7c-22.4-13-40.6,5.4-53.2,28C315.1,73.4,352.9,94.2,336.8,132.6z M176.3,131.7
	c-16.2-38.9,23-58.7,46.2-34.7c-12.7-23.1-31-42.1-53.8-29c-22.6,13.1-15.5,38.3-2.1,60.6C169.7,129.3,172.9,130.3,176.3,131.7z
	 M263.4,147.6c-2.5,0.2-4.5,2.3-7.1,1.9c-2.8-0.4-5.2-3-8.1-1.4c-6.3,3.3-4,18.8,5.4,22.2C268.7,175.7,274.1,146.8,263.4,147.6z"/>
<path d="M492.2,221.3v9H7.8v-9H492.2z M7.8,346h484.3v-9H7.8V346z"/>
</svg>
